<svg width="42" height="34" viewBox="0 0 42 34" fill="none" xmlns="http://www.w3.org/2000/svg">
<path d="M4.03355 11.2696C3.94029 11.2732 3.85535 11.2438 3.77874 11.1814C3.71117 11.1093 3.67596 11.0266 3.67311 10.9333L3.45147 3.68465L0.961314 3.78049C0.86805 3.78408 0.783114 3.75465 0.706506 3.69222C0.638939 3.6201 0.603729 3.5374 0.600876 3.44411L0.555093 1.94681C0.551956 1.84419 0.582031 1.75897 0.645319 1.69116C0.717934 1.62298 0.800873 1.5871 0.894138 1.58351L8.42057 1.29386C8.52316 1.28992 8.60809 1.31934 8.67538 1.38213C8.74266 1.44492 8.77787 1.52762 8.781 1.63024L8.82679 3.12754C8.82993 3.23016 8.79985 3.31538 8.73656 3.38319C8.67327 3.45101 8.59033 3.48689 8.48774 3.49084L5.99759 3.58667L6.21923 10.8353C6.22208 10.9286 6.192 11.0138 6.129 11.0909C6.06571 11.1587 5.98277 11.1946 5.88018 11.1986L4.03355 11.2696ZM10.2713 11.0296C10.178 11.0332 10.0931 11.0038 10.0165 10.9413C9.94892 10.8692 9.91371 10.7865 9.91085 10.6932L9.63273 1.59746C9.6296 1.49484 9.65967 1.40963 9.72296 1.34181C9.79557 1.27364 9.87851 1.23776 9.97178 1.23417L16.5049 0.982743C16.6075 0.978794 16.6925 1.00822 16.7598 1.07101C16.827 1.1338 16.8622 1.2165 16.8654 1.31912L16.9056 2.63451C16.9085 2.72779 16.8784 2.81301 16.8154 2.89016C16.7521 2.95797 16.6691 2.99385 16.5666 2.9978L12.1039 3.16954L12.1616 5.05866L16.3165 4.89876C16.4191 4.89481 16.5042 4.9289 16.5718 5.00102C16.6391 5.06381 16.6743 5.14651 16.6774 5.24913L16.7146 6.46656C16.7175 6.55985 16.6874 6.64507 16.6244 6.72222C16.5611 6.79003 16.4782 6.82591 16.3756 6.82986L12.2207 6.98976L12.2801 8.93485L16.8548 8.7588C16.9573 8.75485 17.0423 8.78427 17.1096 8.84706C17.1768 8.90985 17.2121 8.99256 17.2152 9.09518L17.2554 10.4106C17.2583 10.5039 17.2282 10.5891 17.1652 10.6662C17.1019 10.734 17.019 10.7699 16.9164 10.7739L10.2713 11.0296ZM22.0922 10.7148C21.2062 10.7489 20.4421 10.6475 19.7999 10.4107C19.1578 10.1739 18.667 9.85188 18.3278 9.44464C17.9975 9.02771 17.8154 8.56772 17.7814 8.06467C17.7791 7.99004 17.8051 7.92366 17.8593 7.86554C17.9226 7.79772 17.9962 7.7622 18.0801 7.75897L19.8428 7.69113C19.9548 7.68682 20.0441 7.70674 20.1108 7.75087C20.1865 7.78531 20.263 7.84308 20.3402 7.92417C20.4688 8.16206 20.6708 8.35509 20.9461 8.50328C21.2215 8.65146 21.5829 8.71694 22.0306 8.69971C22.5622 8.67925 22.9654 8.57968 23.24 8.40099C23.5147 8.2223 23.6476 7.98836 23.6387 7.69916C23.6325 7.49392 23.5527 7.32887 23.3995 7.20401C23.2556 7.07879 23.0282 6.97079 22.7173 6.88001C22.4064 6.78924 21.9458 6.69021 21.3356 6.58294C20.2093 6.39278 19.3595 6.08458 18.7862 5.65832C18.222 5.22238 17.9271 4.58461 17.9014 3.745C17.884 3.17593 18.027 2.6614 18.3304 2.2014C18.6338 1.74141 19.0754 1.37417 19.6553 1.09967C20.2352 0.825178 20.9168 0.672856 21.7002 0.642707C22.5116 0.611481 23.22 0.724317 23.8255 0.981216C24.4309 1.23811 24.8941 1.57521 25.215 1.9925C25.5449 2.4001 25.7255 2.80877 25.7567 3.21853C25.7593 3.30249 25.7334 3.37354 25.6792 3.43166C25.6249 3.48979 25.5559 3.52047 25.4719 3.5237L23.6253 3.59477C23.5134 3.59907 23.4195 3.584 23.3438 3.54956C23.2774 3.51476 23.2149 3.45645 23.1564 3.37464C23.0938 3.16223 22.9344 2.98624 22.678 2.84667C22.431 2.70673 22.1256 2.64377 21.7618 2.65777C21.3421 2.67392 21.0227 2.76093 20.8034 2.91881C20.5841 3.07669 20.4789 3.30022 20.4878 3.58942C20.4937 3.78533 20.5594 3.94626 20.6846 4.0722C20.8192 4.19778 21.028 4.31116 21.3113 4.41234C21.6035 4.50383 22.0172 4.59532 22.5522 4.68681C23.4244 4.81202 24.1207 4.98603 24.6411 5.20885C25.1705 5.42197 25.5623 5.71511 25.8165 6.08827C26.0703 6.45209 26.206 6.91854 26.2234 7.48761C26.2425 8.11265 26.0773 8.66539 25.7279 9.14584C25.3874 9.6166 24.8993 9.9903 24.2635 10.267C23.6367 10.5339 22.913 10.6832 22.0922 10.7148ZM2.21533 22.3474C2.12207 22.351 2.03713 22.3216 1.96052 22.2592C1.89296 22.187 1.85775 22.1043 1.8549 22.011L1.57678 12.9153C1.57364 12.8127 1.60371 12.7275 1.667 12.6596C1.73962 12.5915 1.82256 12.5556 1.91582 12.552L3.67851 12.4842C3.78111 12.4802 3.86604 12.5096 3.93332 12.5724C4.00061 12.6352 4.03581 12.7179 4.03895 12.8205L4.13394 15.9271L6.62447 12.637C6.73097 12.4554 6.91012 12.3598 7.16194 12.3501L9.17645 12.2726C9.26038 12.2693 9.33133 12.2993 9.38928 12.3625C9.44696 12.4163 9.47693 12.4805 9.47921 12.5551C9.48121 12.6204 9.46893 12.6769 9.44238 12.7247L6.21408 17.0799L9.96547 21.5868C10.0039 21.6227 10.0243 21.678 10.0266 21.7526C10.0288 21.8272 10.003 21.8983 9.94904 21.9657C9.89479 22.0239 9.8257 22.0545 9.74176 22.0578L7.65731 22.138C7.43347 22.1466 7.24409 22.0605 7.08916 21.8797L4.21353 18.5299L4.31707 21.9163C4.32021 22.0189 4.29014 22.1041 4.22685 22.1719C4.16356 22.2398 4.08062 22.2756 3.97803 22.2796L2.21533 22.3474ZM10.1627 22.0416C10.088 22.0444 10.0172 22.0191 9.95024 21.9657C9.89229 21.9025 9.86217 21.8336 9.85989 21.759C9.85817 21.703 9.86155 21.6609 9.87002 21.6325L12.8829 12.5222C12.9075 12.4092 12.9652 12.3136 13.0562 12.2353C13.1472 12.1571 13.2673 12.1151 13.4165 12.1094L15.487 12.0297C15.6362 12.024 15.7586 12.0566 15.8541 12.1277C15.9497 12.1987 16.0132 12.2897 16.0446 12.4005L19.5928 21.2584L19.6247 21.3832C19.6269 21.4579 19.5964 21.5291 19.5331 21.5969C19.4789 21.655 19.4098 21.6857 19.3259 21.6889L17.6051 21.7552C17.3813 21.7638 17.2291 21.6716 17.1485 21.4785L16.5593 20.0722L12.824 20.2159L12.3361 21.6637C12.2674 21.8625 12.1165 21.9664 11.8834 21.9753L10.1627 22.0416ZM15.9381 18.0787L14.5241 14.4345L13.336 18.1788L15.9381 18.0787ZM20.6664 21.6373C20.5731 21.6409 20.4882 21.6115 20.4116 21.5491C20.344 21.477 20.3088 21.3943 20.3059 21.301L20.0278 12.2052C20.0247 12.1026 20.0547 12.0174 20.118 11.9496C20.1906 11.8814 20.2736 11.8455 20.3668 11.8419L24.172 11.6955C25.3938 11.6485 26.3536 11.8917 27.0516 12.4253C27.7586 12.9491 28.1276 13.7195 28.1587 14.7363C28.1787 15.3893 28.0418 15.9503 27.748 16.4193C27.4542 16.8883 27.0405 17.2544 26.507 17.5178L28.5288 20.8864C28.5585 20.9413 28.5741 20.9921 28.5755 21.0388C28.5778 21.1134 28.5473 21.1846 28.484 21.2524C28.4298 21.3106 28.3653 21.3411 28.2907 21.3439L26.4301 21.4155C26.1596 21.4259 25.9646 21.3074 25.845 21.0598L24.156 18.0426L22.7291 18.0975L22.8241 21.2041C22.8272 21.3067 22.7925 21.3921 22.7198 21.4602C22.6566 21.5281 22.5736 21.5639 22.471 21.5679L20.6664 21.6373ZM24.2771 16.0485C24.7061 16.032 25.0294 15.9168 25.247 15.703C25.4643 15.4798 25.5672 15.1816 25.5558 14.8085C25.5444 14.4353 25.4235 14.1458 25.1931 13.9398C24.9717 13.7242 24.6419 13.6248 24.2035 13.6416L22.5947 13.7036L22.6683 16.1104L24.2771 16.0485ZM29.9192 21.2813C29.8259 21.2848 29.741 21.2554 29.6644 21.193C29.5968 21.1209 29.5616 21.0382 29.5588 20.9449L29.2806 11.8491C29.2775 11.7465 29.3076 11.6613 29.3709 11.5935C29.4435 11.5253 29.5264 11.4894 29.6197 11.4858L31.4943 11.4137C31.5969 11.4097 31.6818 11.4392 31.7491 11.502C31.8257 11.5644 31.8656 11.6469 31.8687 11.7495L32.1468 20.8453C32.15 20.9479 32.1152 21.0333 32.0426 21.1015C31.9793 21.1693 31.8964 21.2052 31.7938 21.2091L29.9192 21.2813ZM34.0352 21.1229C33.942 21.1264 33.857 21.097 33.7804 21.0346C33.7128 20.9625 33.6776 20.8798 33.6748 20.7865L33.3967 11.6907C33.3935 11.5881 33.4236 11.5029 33.4869 11.4351C33.5595 11.3669 33.6424 11.331 33.7357 11.3274L37.5409 11.181C38.7626 11.134 39.7225 11.3772 40.4204 11.9108C41.1274 12.4346 41.4965 13.205 41.5276 14.2218C41.5475 14.8749 41.4106 15.4359 41.1168 15.9048C40.823 16.3738 40.4094 16.7399 39.8759 17.0033L41.8977 20.372C41.9274 20.4268 41.9429 20.4776 41.9444 20.5243C41.9467 20.5989 41.9161 20.6701 41.8529 20.7379C41.7986 20.7961 41.7342 20.8266 41.6596 20.8294L39.799 20.901C39.5285 20.9114 39.3334 20.7929 39.2138 20.5453L37.5249 17.5281L36.0979 17.583L36.1929 20.6896C36.1961 20.7922 36.1613 20.8776 36.0887 20.9458C36.0254 21.0136 35.9425 21.0495 35.8399 21.0534L34.0352 21.1229ZM37.646 15.534C38.075 15.5175 38.3983 15.4023 38.6158 15.1885C38.8331 14.9653 38.936 14.6671 38.9246 14.294C38.9132 13.9208 38.7923 13.6313 38.5619 13.4253C38.3406 13.2097 38.0107 13.1103 37.5724 13.1272L35.9636 13.1891L36.0372 15.5959L37.646 15.534ZM6.22109 33.3412C4.88741 33.3925 3.83301 33.1108 3.05788 32.4962C2.2918 31.8719 1.86662 30.9449 1.78233 29.7153C1.76531 29.4638 1.74809 29.0535 1.73069 28.4844C1.71301 27.906 1.70483 27.486 1.70617 27.2245C1.71572 26.0099 2.0929 25.0614 2.8377 24.3789C3.58221 23.6871 4.60732 23.3161 5.91302 23.2659C6.73374 23.2343 7.47481 23.3459 8.13622 23.6006C8.79734 23.846 9.32227 24.2181 9.71102 24.7168C10.1088 25.2059 10.3228 25.7907 10.3529 26.4714L10.3538 26.4994C10.3561 26.574 10.3254 26.6406 10.2618 26.6991C10.2073 26.7479 10.1427 26.7737 10.0681 26.7766L8.17953 26.8492C8.05828 26.8539 7.96431 26.8342 7.89759 26.79C7.8306 26.7366 7.77164 26.6408 7.72073 26.5026C7.57562 26.0319 7.36031 25.7086 7.07481 25.5328C6.78903 25.3477 6.41764 25.2639 5.96064 25.2815C4.86012 25.3238 4.31004 25.9614 4.31038 27.1943C4.30876 27.4465 4.31593 27.8339 4.33191 28.3563C4.34788 28.8787 4.36467 29.275 4.38227 29.5452C4.45723 30.7752 5.04497 31.369 6.14548 31.3266C6.60248 31.309 6.97254 31.1967 7.25567 30.9897C7.53851 30.7733 7.72891 30.4344 7.82685 29.973C7.85987 29.8316 7.90832 29.7364 7.97217 29.6872C8.03575 29.6287 8.13282 29.597 8.26339 29.592L10.152 29.5193C10.2359 29.516 10.3067 29.5413 10.3644 29.5952C10.4314 29.6486 10.4615 29.7175 10.4548 29.8018C10.4663 30.4832 10.2887 31.0878 9.92196 31.6156C9.56431 32.1337 9.06334 32.5453 8.41904 32.8503C7.77447 33.1459 7.04181 33.3096 6.22109 33.3412ZM15.6102 32.9798C14.2952 33.0304 13.2501 32.7484 12.475 32.1338C11.6999 31.5192 11.2699 30.5877 11.185 29.3394C11.1674 29.0692 11.1505 28.6683 11.1342 28.1365C11.1177 27.5954 11.1099 27.1895 11.111 26.9186C11.12 25.6853 11.4967 24.7228 12.2412 24.031C12.9948 23.3296 14.0151 22.9541 15.3021 22.9045C16.5892 22.855 17.63 23.1512 18.4247 23.7931C19.219 24.4256 19.6537 25.3569 19.7286 26.5869C19.7638 27.1273 19.7856 27.5327 19.7938 27.8033C19.8018 28.0645 19.8048 28.466 19.8026 29.0078C19.7942 30.2597 19.4222 31.222 18.6864 31.8948C17.9506 32.5675 16.9252 32.9292 15.6102 32.9798ZM15.5486 30.9648C16.0616 30.945 16.4625 30.7755 16.7516 30.4561C17.0499 30.1364 17.1987 29.659 17.198 29.024C17.2001 28.4822 17.1977 28.0993 17.1909 27.8754C17.1835 27.6329 17.1625 27.2507 17.1278 26.729C17.0898 26.0954 16.9122 25.6305 16.595 25.3345C16.2778 25.0385 15.8674 24.9002 15.3638 24.9196C14.8601 24.939 14.4591 25.1085 14.1608 25.4282C13.8717 25.7476 13.7229 26.2249 13.7144 26.8604C13.713 27.122 13.7201 27.5046 13.7355 28.0084C13.7506 28.5028 13.7669 28.8851 13.7845 29.1553C13.8319 29.7886 14.0095 30.2534 14.3174 30.5498C14.6252 30.8462 15.0356 30.9845 15.5486 30.9648ZM21.4944 32.6133C21.4011 32.6169 21.3162 32.5874 21.2396 32.525C21.172 32.4529 21.1368 32.3702 21.1339 32.2769L20.8558 23.1812C20.8527 23.0785 20.8828 22.9933 20.946 22.9255C21.0187 22.8573 21.1016 22.8214 21.1949 22.8179L22.7057 22.7597C22.9296 22.7511 23.0959 22.8474 23.2048 23.0487L25.8018 27.3619L28.1291 22.8592C28.2255 22.65 28.3855 22.5411 28.6094 22.5325L30.1063 22.4749C30.2089 22.471 30.2938 22.5004 30.3611 22.5632C30.4377 22.6256 30.4776 22.7081 30.4807 22.8107L30.7588 31.9065C30.762 32.0091 30.7272 32.0945 30.6546 32.1627C30.5913 32.2305 30.5084 32.2664 30.4058 32.2703L28.741 32.3344C28.6384 32.3383 28.5488 32.3091 28.4722 32.2467C28.4049 32.1839 28.3697 32.1012 28.3666 31.9986L28.2061 26.751L26.7287 29.7359C26.614 29.9552 26.4541 30.0687 26.2489 30.0766L25.5215 30.1046C25.4002 30.1093 25.3014 30.0851 25.2251 30.032C25.1488 29.9789 25.0811 29.9021 25.022 29.8016L23.3517 26.9378L23.5122 32.1854C23.515 32.2787 23.485 32.3639 23.422 32.441C23.3587 32.5088 23.2757 32.5447 23.1731 32.5487L21.4944 32.6133Z" fill="white"/>
</svg>
